<?xml version="1.0" encoding="UTF-8" standalone="no"?>
<!DOCTYPE svg PUBLIC "-//W3C//DTD SVG 1.1//EN" "http://www.w3.org/Graphics/SVG/1.1/DTD/svg11.dtd">
<svg width="100%" height="100%" viewBox="0 0 300 300" version="1.1" xmlns="http://www.w3.org/2000/svg" xmlns:xlink="http://www.w3.org/1999/xlink" xml:space="preserve" xmlns:serif="http://www.serif.com/" style="fill-rule:evenodd;clip-rule:evenodd;stroke-linejoin:round;stroke-miterlimit:2;">
    <rect id="Artboard1" x="0" y="0" width="300" height="300" style="fill:none;"/>
    <g id="Artboard11" serif:id="Artboard1">
        <path d="M62.983,140.375C64.51,139.237 65.601,137.61 66.073,135.765C73.339,108.472 101.114,88.142 134.225,88.142C172.885,88.142 204.273,115.859 204.273,150C204.273,184.141 172.885,211.858 134.225,211.858C103.963,211.858 78.158,194.876 68.372,171.12C67.633,169.272 66.252,167.752 64.483,166.839C59.362,164.35 58.18,160.63 57.84,155.313C57.495,149.917 58.079,144.047 62.983,140.375Z" style="fill:rgb(195,155,0);"/>
        <g id="Sliced-Lemon" serif:id="Sliced Lemon">
            <g transform="matrix(1.23954,0,0.275802,1.07976,17.9581,-34.1249)">
                <path d="M73.113,132.748C77.296,130.294 86.006,127.293 94.146,127.161C120.904,126.607 144.209,145.561 143.919,176.63C143.662,204.268 112.501,231.568 85.148,231.568C56.625,231.568 39.554,204.215 47.051,170.524C51.512,150.474 62.188,139.155 73.113,132.748Z" style="fill:rgb(205,163,0);"/>
            </g>
            <g transform="matrix(0.933563,0,0.207721,0.813228,65.4817,5.5075)">
                <circle cx="87.452" cy="183.476" r="62.548" style="fill:rgb(234,241,247);"/>
                <clipPath id="_clip1">
                    <circle cx="87.452" cy="183.476" r="62.548"/>
                </clipPath>
                <g clip-path="url(#_clip1)">
                    <g transform="matrix(0.867091,0,2.20505e-17,0.867091,11.6232,24.3857)">
                        <circle cx="87.452" cy="183.476" r="62.548" style="fill:rgb(234,241,247);"/>
                        <clipPath id="_clip2">
                            <circle cx="87.452" cy="183.476" r="62.548"/>
                        </clipPath>
                        <g clip-path="url(#_clip2)">
                            <g transform="matrix(0.707107,0.707107,-0.707107,0.707107,155.352,-8.0992)">
                                <g transform="matrix(1.77195,-1.77195,1.82986,1.82986,-423.434,22.5641)">
                                    <path d="M98.754,181.377C98.754,181.377 103.859,193.789 107.207,201.93C107.757,203.267 107.466,205.024 106.455,206.483C105.443,207.942 103.88,208.859 102.403,208.859C99.05,208.859 95.217,208.859 92.271,208.859C91.089,208.859 90.104,208.269 89.589,207.251C89.073,206.234 89.082,204.896 89.612,203.608C92.892,195.631 98.754,181.377 98.754,181.377Z" style="fill:rgb(207,182,86);"/>
                                    <path d="M98.754,181.377C98.754,181.377 103.859,193.789 107.207,201.93C107.757,203.267 107.466,205.024 106.455,206.483C105.443,207.942 103.88,208.859 102.403,208.859C99.05,208.859 95.217,208.859 92.271,208.859C91.089,208.859 90.104,208.269 89.589,207.251C89.073,206.234 89.082,204.896 89.612,203.608C92.892,195.631 98.754,181.377 98.754,181.377ZM98.651,184.087L106.252,202.57C106.664,203.571 106.447,204.886 105.689,205.978C104.932,207.07 103.762,207.756 102.656,207.756C102.656,207.756 92.524,207.756 92.524,207.756C91.639,207.756 90.902,207.315 90.516,206.553C90.131,205.791 90.137,204.79 90.534,203.825L98.651,184.087Z" style="fill:rgb(234,241,247);"/>
                                </g>
                                <g transform="matrix(-1.77195,1.77195,-1.82986,-1.82986,598.339,344.388)">
                                    <path d="M98.754,181.377C98.754,181.377 103.859,193.789 107.207,201.93C107.757,203.267 107.466,205.024 106.455,206.483C105.443,207.942 103.88,208.859 102.403,208.859C99.05,208.859 95.217,208.859 92.271,208.859C91.089,208.859 90.104,208.269 89.589,207.251C89.073,206.234 89.082,204.896 89.612,203.608C92.892,195.631 98.754,181.377 98.754,181.377Z" style="fill:rgb(207,182,86);"/>
                                    <path d="M98.754,181.377C98.754,181.377 103.859,193.789 107.207,201.93C107.757,203.267 107.466,205.024 106.455,206.483C105.443,207.942 103.88,208.859 102.403,208.859C99.05,208.859 95.217,208.859 92.271,208.859C91.089,208.859 90.104,208.269 89.589,207.251C89.073,206.234 89.082,204.896 89.612,203.608C92.892,195.631 98.754,181.377 98.754,181.377ZM98.651,184.087L106.252,202.57C106.664,203.571 106.447,204.886 105.689,205.978C104.932,207.07 103.762,207.756 102.656,207.756C102.656,207.756 92.524,207.756 92.524,207.756C91.639,207.756 90.902,207.315 90.516,206.553C90.131,205.791 90.137,204.79 90.534,203.825L98.651,184.087Z" style="fill:rgb(234,241,247);"/>
                                </g>
                                <g transform="matrix(-1.77195,-1.77195,1.82986,-1.82986,-73.4598,694.363)">
                                    <path d="M98.754,181.377C98.754,181.377 105.06,196.71 108.251,204.47C108.71,205.586 108.633,206.703 108.039,207.541C107.445,208.379 106.391,208.859 105.141,208.859C102.285,208.859 98.619,208.859 95.367,208.859C93.772,208.859 92.082,208.081 90.953,206.828C89.823,205.575 89.433,204.043 89.932,202.828C93.259,194.738 98.754,181.377 98.754,181.377Z" style="fill:rgb(207,182,86);"/>
                                    <path d="M98.754,181.377C98.754,181.377 105.06,196.71 108.251,204.47C108.71,205.586 108.633,206.703 108.039,207.541C107.445,208.379 106.391,208.859 105.141,208.859C102.285,208.859 98.619,208.859 95.367,208.859C93.772,208.859 92.082,208.081 90.953,206.828C89.823,205.575 89.433,204.043 89.932,202.828C93.259,194.738 98.754,181.377 98.754,181.377ZM98.849,184.308L107.187,204.582C107.531,205.418 107.473,206.254 107.028,206.881C106.584,207.509 105.795,207.867 104.859,207.867C102.003,207.867 98.338,207.867 95.085,207.867C93.891,207.867 92.626,207.285 91.781,206.347C90.935,205.409 90.643,204.263 91.017,203.353L98.849,184.308Z" style="fill:rgb(234,241,247);"/>
                                </g>
                                <g transform="matrix(1.77195,1.77195,-1.82986,1.82986,248.365,-327.41)">
                                    <path d="M98.754,181.377C98.754,181.377 105.06,196.71 108.251,204.47C108.71,205.586 108.633,206.703 108.039,207.541C107.445,208.379 106.391,208.859 105.141,208.859C102.285,208.859 98.619,208.859 95.367,208.859C93.772,208.859 92.082,208.081 90.953,206.828C89.823,205.575 89.433,204.043 89.932,202.828C93.259,194.738 98.754,181.377 98.754,181.377Z" style="fill:rgb(207,182,86);"/>
                                    <path d="M98.754,181.377C98.754,181.377 105.06,196.71 108.251,204.47C108.71,205.586 108.633,206.703 108.039,207.541C107.445,208.379 106.391,208.859 105.141,208.859C102.285,208.859 98.619,208.859 95.367,208.859C93.772,208.859 92.082,208.081 90.953,206.828C89.823,205.575 89.433,204.043 89.932,202.828C93.259,194.738 98.754,181.377 98.754,181.377ZM98.849,184.308L107.187,204.582C107.531,205.418 107.473,206.254 107.028,206.881C106.584,207.509 105.795,207.867 104.859,207.867C102.003,207.867 98.338,207.867 95.085,207.867C93.891,207.867 92.626,207.285 91.781,206.347C90.935,205.409 90.643,204.263 91.017,203.353L98.849,184.308Z" style="fill:rgb(234,241,247);"/>
                                </g>
                                <g transform="matrix(2.50591,0,0,2.58782,-160.017,-291.557)">
                                    <path d="M98.754,181.377C98.754,181.377 104.085,194.338 107.424,202.458C108.014,203.893 108.021,205.522 107.443,206.806C106.865,208.089 105.778,208.859 104.542,208.859L94.157,208.859C92.806,208.859 91.481,207.94 90.696,206.461C89.911,204.981 89.791,203.173 90.38,201.738C93.729,193.596 98.754,181.377 98.754,181.377Z" style="fill:rgb(207,182,86);"/>
                                    <path d="M98.754,181.377C98.754,181.377 104.085,194.338 107.424,202.458C108.014,203.893 108.021,205.522 107.443,206.806C106.865,208.089 105.778,208.859 104.542,208.859L94.157,208.859C92.806,208.859 91.481,207.94 90.696,206.461C89.911,204.981 89.791,203.173 90.38,201.738C93.729,193.596 98.754,181.377 98.754,181.377ZM98.801,183.942L106.597,202.897C107.038,203.971 107.044,205.191 106.611,206.152C106.179,207.112 105.365,207.688 104.44,207.688L94.054,207.688C93.043,207.688 92.051,207.001 91.463,205.894C90.876,204.786 90.786,203.432 91.227,202.359L98.801,183.942Z" style="fill:rgb(234,241,247);"/>
                                </g>
                                <g transform="matrix(-2.50591,-4.72445e-16,1.68663e-16,-2.58782,334.922,658.51)">
                                    <path d="M98.754,181.377C98.754,181.377 104.085,194.338 107.424,202.458C108.014,203.893 108.021,205.522 107.443,206.806C106.865,208.089 105.778,208.859 104.542,208.859L94.157,208.859C92.806,208.859 91.481,207.94 90.696,206.461C89.911,204.981 89.791,203.173 90.38,201.738C93.729,193.596 98.754,181.377 98.754,181.377Z" style="fill:rgb(207,182,86);"/>
                                    <path d="M98.754,181.377C98.754,181.377 104.085,194.338 107.424,202.458C108.014,203.893 108.021,205.522 107.443,206.806C106.865,208.089 105.778,208.859 104.542,208.859L94.157,208.859C92.806,208.859 91.481,207.94 90.696,206.461C89.911,204.981 89.791,203.173 90.38,201.738C93.729,193.596 98.754,181.377 98.754,181.377ZM98.801,183.942L106.597,202.897C107.038,203.971 107.044,205.191 106.611,206.152C106.179,207.112 105.365,207.688 104.44,207.688L94.054,207.688C93.043,207.688 92.051,207.001 91.463,205.894C90.876,204.786 90.786,203.432 91.227,202.359L98.801,183.942Z" style="fill:rgb(234,241,247);"/>
                                </g>
                                <g transform="matrix(3.43097e-15,-2.50591,2.58782,2.97293e-15,-387.581,430.945)">
                                    <path d="M98.754,181.377C98.754,181.377 104.728,195.902 107.989,203.833C108.449,204.95 108.105,206.23 107.073,207.24C106.041,208.251 104.459,208.859 102.858,208.859L93.288,208.859C91.856,208.859 90.57,208.371 89.785,207.532C88.999,206.692 88.798,205.588 89.235,204.524C92.419,196.781 98.754,181.377 98.754,181.377Z" style="fill:rgb(207,182,86);"/>
                                    <path d="M98.754,181.377C98.754,181.377 104.728,195.902 107.989,203.833C108.449,204.95 108.105,206.23 107.073,207.24C106.041,208.251 104.459,208.859 102.858,208.859L93.288,208.859C91.856,208.859 90.57,208.371 89.785,207.532C88.999,206.692 88.798,205.588 89.235,204.524C92.419,196.781 98.754,181.377 98.754,181.377ZM98.715,184.451L106.831,204.186C107.175,205.023 106.918,205.981 106.145,206.737C105.373,207.494 104.188,207.948 102.99,207.948L93.42,207.948C92.348,207.948 91.385,207.584 90.798,206.955C90.21,206.326 90.059,205.5 90.386,204.703L98.715,184.451Z" style="fill:rgb(234,241,247);"/>
                                </g>
                                <g transform="matrix(-3.57806e-16,2.50591,-2.58782,-1.46337e-15,562.486,-63.9929)">
                                    <path d="M98.754,181.377C98.754,181.377 104.728,195.902 107.989,203.833C108.449,204.95 108.105,206.23 107.073,207.24C106.041,208.251 104.459,208.859 102.858,208.859L93.288,208.859C91.856,208.859 90.57,208.371 89.785,207.532C88.999,206.692 88.798,205.588 89.235,204.524C92.419,196.781 98.754,181.377 98.754,181.377Z" style="fill:rgb(207,182,86);"/>
                                    <path d="M98.754,181.377C98.754,181.377 104.728,195.902 107.989,203.833C108.449,204.95 108.105,206.23 107.073,207.24C106.041,208.251 104.459,208.859 102.858,208.859L93.288,208.859C91.856,208.859 90.57,208.371 89.785,207.532C88.999,206.692 88.798,205.588 89.235,204.524C92.419,196.781 98.754,181.377 98.754,181.377ZM98.715,184.451L106.831,204.186C107.175,205.023 106.918,205.981 106.145,206.737C105.373,207.494 104.188,207.948 102.99,207.948L93.42,207.948C92.348,207.948 91.385,207.584 90.798,206.955C90.21,206.326 90.059,205.5 90.386,204.703L98.715,184.451Z" style="fill:rgb(234,241,247);"/>
                                </g>
                            </g>
                        </g>
                    </g>
                    <circle cx="87.452" cy="183.476" r="8.22" style="fill:rgb(234,241,247);"/>
                </g>
            </g>
        </g>
    </g>
</svg>
